<svg width="244" height="65" viewBox="0 0 244 65" fill="none" xmlns="http://www.w3.org/2000/svg">
  <path fill-rule="evenodd" clip-rule="evenodd" d="M32.5 0C14.5437 0 0 14.9116 0 33.322C0 48.0671 9.30312 60.5212 22.2219 64.9363C23.8469 65.2279 24.4562 64.2282 24.4562 63.3535C24.4562 62.5621 24.4156 59.938 24.4156 57.1473C16.25 58.6885 14.1375 55.1063 13.4875 53.232C13.1219 52.274 11.5375 49.3166 10.1562 48.5252C9.01875 47.9004 7.39375 46.3593 10.1156 46.3176C12.675 46.276 14.5031 48.7335 15.1125 49.7332C18.0375 54.7731 22.7094 53.3569 24.5781 52.4822C24.8625 50.3163 25.7156 48.8585 26.65 48.0254C19.4187 47.1924 11.8625 44.3183 11.8625 31.5726C11.8625 27.9489 13.1219 24.9499 15.1937 22.6173C14.8687 21.7843 13.7312 18.3688 15.5187 13.787C15.5187 13.787 18.2406 12.9123 24.4562 17.2025C27.0562 16.4528 29.8187 16.0779 32.5812 16.0779C35.3437 16.0779 38.1062 16.4528 40.7062 17.2025C46.9219 12.8706 49.6437 13.787 49.6437 13.787C51.4312 18.3688 50.2938 21.7843 49.9688 22.6173C52.0406 24.9499 53.3 27.9072 53.3 31.5726C53.3 44.36 45.7031 47.1924 38.4719 48.0254C39.65 49.0667 40.6656 51.066 40.6656 54.19C40.6656 58.6468 40.625 62.2289 40.625 63.3535C40.625 64.2282 41.2344 65.2696 42.8594 64.9363C49.3111 62.703 54.9174 58.4515 58.8891 52.7804C62.8608 47.1092 64.9981 40.3038 65 33.322C65 14.9116 50.4562 0 32.5 0Z" fill="black"/>
  <path fill-rule="evenodd" clip-rule="evenodd" d="M37.3251 34.8985L42.7048 40.2783C42.8939 40.4676 43.0001 40.7242 43 40.9917C42.9999 41.2592 42.8935 41.5157 42.7043 41.7048C42.5151 41.8939 42.2585 42.0001 41.991 42C41.7235 41.9999 41.467 41.8935 41.2779 41.7043L35.8981 36.3244C34.2899 37.5701 32.2676 38.1563 30.2425 37.9638C28.2175 37.7712 26.3418 36.8145 24.9971 35.2881C23.6524 33.7617 22.9397 31.7803 23.004 29.7471C23.0683 27.7139 23.9047 25.7815 25.343 24.3431C26.7814 22.9047 28.7138 22.0683 30.7469 22.004C32.7801 21.9397 34.7614 22.6525 36.2877 23.9972C37.8141 25.3419 38.7708 27.2176 38.9634 29.2427C39.1559 31.2678 38.5697 33.2902 37.3241 34.8985H37.3251ZM31.0004 35.9994C32.5916 35.9994 34.1176 35.3673 35.2428 34.2421C36.368 33.1169 37.0001 31.5908 37.0001 29.9996C37.0001 28.4083 36.368 26.8822 35.2428 25.757C34.1176 24.6318 32.5916 23.9997 31.0004 23.9997C29.4091 23.9997 27.8831 24.6318 26.7579 25.757C25.6328 26.8822 25.0007 28.4083 25.0007 29.9996C25.0007 31.5908 25.6328 33.1169 26.7579 34.2421C27.8831 35.3673 29.4091 35.9994 31.0004 35.9994V35.9994Z" fill="black"/>
  <path d="M97.472 47.32C95.7227 47.32 94.112 47.0427 92.64 46.488C91.1893 45.912 89.92 45.112 88.832 44.088C87.744 43.0427 86.9013 41.816 86.304 40.408C85.7067 39 85.408 37.464 85.408 35.8C85.408 34.136 85.7067 32.6 86.304 31.192C86.9013 29.784 87.744 28.568 88.832 27.544C89.9413 26.4987 91.232 25.6987 92.704 25.144C94.176 24.568 95.7867 24.28 97.536 24.28C99.4347 24.28 101.141 24.5893 102.656 25.208C104.192 25.8267 105.483 26.7333 106.528 27.928L103.904 30.488C103.029 29.6133 102.08 28.9733 101.056 28.568C100.053 28.1413 98.944 27.928 97.728 27.928C96.5547 27.928 95.4667 28.12 94.464 28.504C93.4613 28.888 92.5973 29.432 91.872 30.136C91.1467 30.84 90.5813 31.672 90.176 32.632C89.792 33.592 89.6 34.648 89.6 35.8C89.6 36.9307 89.792 37.976 90.176 38.936C90.5813 39.896 91.1467 40.7387 91.872 41.464C92.5973 42.168 93.4507 42.712 94.432 43.096C95.4133 43.48 96.5013 43.672 97.696 43.672C98.8053 43.672 99.872 43.5013 100.896 43.16C101.941 42.7973 102.933 42.2 103.872 41.368L106.24 44.472C105.067 45.4107 103.701 46.1253 102.144 46.616C100.608 47.0853 99.0507 47.32 97.472 47.32ZM102.304 43.928V35.544H106.24V44.472L102.304 43.928ZM111.343 47V29.912H115.343V47H111.343ZM113.359 27.096C112.612 27.096 111.993 26.8613 111.503 26.392C111.033 25.9227 110.799 25.3573 110.799 24.696C110.799 24.0133 111.033 23.448 111.503 23C111.993 22.5307 112.612 22.296 113.359 22.296C114.105 22.296 114.713 22.52 115.183 22.968C115.673 23.3947 115.919 23.9387 115.919 24.6C115.919 25.304 115.684 25.9013 115.215 26.392C114.745 26.8613 114.127 27.096 113.359 27.096ZM127.025 47.224C125.147 47.224 123.697 46.744 122.673 45.784C121.649 44.8027 121.137 43.3627 121.137 41.464V26.136H125.137V41.368C125.137 42.1787 125.339 42.808 125.745 43.256C126.171 43.704 126.758 43.928 127.505 43.928C128.401 43.928 129.147 43.6933 129.745 43.224L130.865 46.072C130.395 46.456 129.819 46.744 129.137 46.936C128.454 47.128 127.75 47.224 127.025 47.224ZM118.321 33.24V30.04H129.713V33.24H118.321ZM141.483 47.32C139.734 47.32 138.059 47.0747 136.459 46.584C134.859 46.072 133.59 45.4213 132.651 44.632L134.091 41.4C134.987 42.104 136.097 42.6907 137.419 43.16C138.742 43.6293 140.097 43.864 141.483 43.864C142.657 43.864 143.606 43.736 144.331 43.48C145.057 43.224 145.59 42.8827 145.931 42.456C146.273 42.008 146.443 41.5067 146.443 40.952C146.443 40.2693 146.198 39.7253 145.707 39.32C145.217 38.8933 144.577 38.5627 143.787 38.328C143.019 38.072 142.155 37.8373 141.195 37.624C140.257 37.4107 139.307 37.1653 138.347 36.888C137.409 36.5893 136.545 36.216 135.755 35.768C134.987 35.2987 134.358 34.68 133.867 33.912C133.377 33.144 133.131 32.1627 133.131 30.968C133.131 29.752 133.451 28.6427 134.091 27.64C134.753 26.616 135.745 25.8053 137.067 25.208C138.411 24.5893 140.107 24.28 142.155 24.28C143.499 24.28 144.833 24.4507 146.155 24.792C147.478 25.1333 148.63 25.624 149.611 26.264L148.299 29.496C147.297 28.8987 146.262 28.4613 145.195 28.184C144.129 27.8853 143.105 27.736 142.123 27.736C140.971 27.736 140.033 27.8747 139.307 28.152C138.603 28.4293 138.081 28.792 137.739 29.24C137.419 29.688 137.259 30.2 137.259 30.776C137.259 31.4587 137.494 32.0133 137.963 32.44C138.454 32.8453 139.083 33.1653 139.851 33.4C140.641 33.6347 141.515 33.8693 142.475 34.104C143.435 34.3173 144.385 34.5627 145.323 34.84C146.283 35.1173 147.147 35.48 147.915 35.928C148.705 36.376 149.334 36.984 149.803 37.752C150.294 38.52 150.539 39.4907 150.539 40.664C150.539 41.8587 150.209 42.968 149.547 43.992C148.907 44.9947 147.915 45.8053 146.571 46.424C145.227 47.0213 143.531 47.32 141.483 47.32ZM162.312 47.224C160.414 47.224 158.75 46.8507 157.32 46.104C155.912 45.336 154.814 44.2907 154.024 42.968C153.256 41.6453 152.872 40.1413 152.872 38.456C152.872 36.7493 153.246 35.2453 153.992 33.944C154.76 32.6213 155.806 31.5867 157.128 30.84C158.472 30.0933 159.998 29.72 161.704 29.72C163.368 29.72 164.851 30.0827 166.152 30.808C167.454 31.5333 168.478 32.5573 169.224 33.88C169.971 35.2027 170.344 36.76 170.344 38.552C170.344 38.7227 170.334 38.9147 170.312 39.128C170.312 39.3413 170.302 39.544 170.28 39.736H156.04V37.08H168.168L166.6 37.912C166.622 36.9307 166.419 36.0667 165.992 35.32C165.566 34.5733 164.979 33.9867 164.232 33.56C163.507 33.1333 162.664 32.92 161.704 32.92C160.723 32.92 159.859 33.1333 159.112 33.56C158.387 33.9867 157.811 34.584 157.384 35.352C156.979 36.0987 156.776 36.984 156.776 38.008V38.648C156.776 39.672 157.011 40.5787 157.48 41.368C157.95 42.1573 158.611 42.7653 159.464 43.192C160.318 43.6187 161.299 43.832 162.408 43.832C163.368 43.832 164.232 43.6827 165 43.384C165.768 43.0853 166.451 42.616 167.048 41.976L169.192 44.44C168.424 45.336 167.454 46.0293 166.28 46.52C165.128 46.9893 163.806 47.224 162.312 47.224ZM184.246 47V43.544L184.022 42.808V36.76C184.022 35.5867 183.67 34.68 182.966 34.04C182.262 33.3787 181.195 33.048 179.766 33.048C178.806 33.048 177.856 33.1973 176.918 33.496C176 33.7947 175.222 34.2107 174.582 34.744L173.014 31.832C173.931 31.128 175.019 30.6053 176.278 30.264C177.558 29.9013 178.88 29.72 180.246 29.72C182.72 29.72 184.63 30.3173 185.974 31.512C187.339 32.6853 188.022 34.5093 188.022 36.984V47H184.246ZM178.87 47.224C177.59 47.224 176.47 47.0107 175.51 46.584C174.55 46.136 173.803 45.528 173.27 44.76C172.758 43.9707 172.502 43.0853 172.502 42.104C172.502 41.144 172.726 40.28 173.174 39.512C173.643 38.744 174.4 38.136 175.446 37.688C176.491 37.24 177.878 37.016 179.606 37.016H184.566V39.672H179.894C178.528 39.672 177.611 39.896 177.142 40.344C176.672 40.7707 176.438 41.304 176.438 41.944C176.438 42.6693 176.726 43.2453 177.302 43.672C177.878 44.0987 178.678 44.312 179.702 44.312C180.683 44.312 181.558 44.088 182.326 43.64C183.115 43.192 183.68 42.5307 184.022 41.656L184.694 44.056C184.31 45.0587 183.616 45.8373 182.614 46.392C181.632 46.9467 180.384 47.224 178.87 47.224ZM193.155 47V29.912H196.963V34.616L196.515 33.24C197.027 32.088 197.827 31.2133 198.915 30.616C200.025 30.0187 201.401 29.72 203.043 29.72V33.528C202.873 33.4853 202.713 33.464 202.563 33.464C202.414 33.4427 202.265 33.432 202.115 33.432C200.601 33.432 199.395 33.88 198.499 34.776C197.603 35.6507 197.155 36.9627 197.155 38.712V47H193.155ZM214.12 47.224C212.328 47.224 210.728 46.8507 209.32 46.104C207.934 45.336 206.846 44.2907 206.056 42.968C205.267 41.6453 204.872 40.1413 204.872 38.456C204.872 36.7493 205.267 35.2453 206.056 33.944C206.846 32.6213 207.934 31.5867 209.32 30.84C210.728 30.0933 212.328 29.72 214.12 29.72C215.784 29.72 217.246 30.0613 218.504 30.744C219.784 31.4053 220.755 32.3867 221.416 33.688L218.344 35.48C217.832 34.6693 217.203 34.072 216.456 33.688C215.731 33.304 214.942 33.112 214.088 33.112C213.107 33.112 212.222 33.3253 211.432 33.752C210.643 34.1787 210.024 34.7973 209.576 35.608C209.128 36.3973 208.904 37.3467 208.904 38.456C208.904 39.5653 209.128 40.5253 209.576 41.336C210.024 42.1253 210.643 42.7333 211.432 43.16C212.222 43.5867 213.107 43.8 214.088 43.8C214.942 43.8 215.731 43.608 216.456 43.224C217.203 42.84 217.832 42.2427 218.344 41.432L221.416 43.224C220.755 44.504 219.784 45.496 218.504 46.2C217.246 46.8827 215.784 47.224 214.12 47.224ZM234.414 29.72C235.779 29.72 236.995 29.9867 238.062 30.52C239.15 31.0533 240.003 31.8747 240.622 32.984C241.24 34.072 241.55 35.48 241.55 37.208V47H237.55V37.72C237.55 36.2053 237.187 35.0747 236.462 34.328C235.758 33.5813 234.766 33.208 233.486 33.208C232.547 33.208 231.715 33.4 230.99 33.784C230.264 34.168 229.699 34.744 229.294 35.512C228.91 36.2587 228.718 37.208 228.718 38.36V47H224.718V23.256H228.718V34.52L227.854 33.112C228.451 32.024 229.315 31.192 230.446 30.616C231.598 30.0187 232.92 29.72 234.414 29.72Z" fill="black"/>
</svg>
